<svg width="24" height="24" viewBox="0 0 24 24" fill="none" xmlns="http://www.w3.org/2000/svg">
<path d="M4 18.0001H9.5V19.2501C9.5 19.9794 9.21027 20.6789 8.69454 21.1946C8.17882 21.7103 7.47935 22.0001 6.75 22.0001C6.02065 22.0001 5.32118 21.7103 4.80546 21.1946C4.28973 20.6789 4 19.9794 4 19.2501V18.0001ZM8 6.12008C10 6.12008 11 9.00008 11 11.0001C11 12.0001 10.5 13.0001 10 14.5001L9.5 16.0001H4C4 15.0001 3.5 13.5001 3.5 11.0001C3.5 8.50008 5.498 6.12008 8 6.12008ZM20.054 14.0981L19.837 15.3291C19.7104 16.0474 19.3035 16.686 18.7061 17.1044C18.1086 17.5228 17.3693 17.6867 16.651 17.5601C15.9327 17.4334 15.2941 17.0266 14.8757 16.4291C14.4573 15.8316 14.2934 15.0924 14.42 14.3741L14.638 13.1441L20.054 14.0981ZM18.178 1.70508C20.642 2.13908 22.196 4.82908 21.762 7.29108C21.328 9.75408 20.575 11.1441 20.402 12.1291L14.985 11.1741L14.753 9.61008C14.521 8.04608 14.203 6.97408 14.376 5.99008C14.723 4.02008 16.208 1.35808 18.178 1.70508Z" fill="white"/>
</svg>
