<svg width="367" height="56" viewBox="0 0 367 56" fill="none" xmlns="http://www.w3.org/2000/svg">
<path d="M67.8633 32.5295V28.5491L68.7544 28.5194C69.9624 28.4897 70.9129 28.0788 71.606 27.2866C72.309 26.4945 72.8189 25.2173 73.1358 23.4548C73.4625 21.6923 73.6804 19.3408 73.7893 16.4L74.3091 2.11227H93.5426V32.5295H89.0127V6.00353H78.6311L78.1558 17.6179C78.0271 20.8755 77.7003 23.6132 77.1756 25.8311C76.6508 28.0392 75.7597 29.7075 74.5022 30.8363C73.2546 31.9651 71.4773 32.5295 69.1703 32.5295H67.8633Z" fill="white"/>
<path d="M123.883 32.5295H119.278V6.04809H113.516C112.011 6.04809 110.788 6.27582 109.847 6.73129C108.907 7.17685 108.219 7.82044 107.783 8.66207C107.347 9.50369 107.129 10.4988 107.129 11.6473C107.129 12.786 107.347 13.7613 107.783 14.5732C108.219 15.3851 108.902 16.004 109.832 16.4297C110.763 16.8555 111.976 17.0684 113.471 17.0684H121.269V21.019H113.041C110.694 21.019 108.738 20.6279 107.174 19.8457C105.619 19.0635 104.451 17.9694 103.669 16.5634C102.897 15.1475 102.51 13.5088 102.51 11.6473C102.51 9.77598 102.897 8.12739 103.669 6.70158C104.441 5.26588 105.605 4.14206 107.159 3.33015C108.723 2.51823 110.679 2.11227 113.026 2.11227H123.883V32.5295ZM108.867 18.8061H113.946L106.565 32.5295H101.352L108.867 18.8061Z" fill="white"/>
<path d="M150.717 32.5295L140.499 18.8952H137.261V32.5295H132.672V2.11227H137.261V14.9594H138.761L150.257 2.11227H155.856L143.692 15.7317L156.317 32.5295H150.717Z" fill="white"/>
<path d="M187.57 17.3209C187.57 20.5685 186.976 23.3607 185.788 25.6975C184.6 28.0243 182.971 29.8165 180.901 31.0739C178.842 32.3215 176.5 32.9453 173.876 32.9453C171.243 32.9453 168.891 32.3215 166.822 31.0739C164.762 29.8165 163.138 28.0194 161.95 25.6826C160.762 23.3459 160.168 20.5586 160.168 17.3209C160.168 14.0732 160.762 11.2859 161.95 8.95911C163.138 6.62237 164.762 4.83021 166.822 3.58263C168.891 2.32515 171.243 1.69641 173.876 1.69641C176.5 1.69641 178.842 2.32515 180.901 3.58263C182.971 4.83021 184.6 6.62237 185.788 8.95911C186.976 11.2859 187.57 14.0732 187.57 17.3209ZM183.025 17.3209C183.025 14.8455 182.624 12.7613 181.822 11.0681C181.03 9.36507 179.941 8.07788 178.555 7.20656C177.178 6.32533 175.619 5.88472 173.876 5.88472C172.124 5.88472 170.559 6.32533 169.183 7.20656C167.807 8.07788 166.718 9.36507 165.916 11.0681C165.124 12.7613 164.727 14.8455 164.727 17.3209C164.727 19.7962 165.124 21.8854 165.916 23.5885C166.718 25.2816 167.807 26.5688 169.183 27.45C170.559 28.3213 172.124 28.757 173.876 28.757C175.619 28.757 177.178 28.3213 178.555 27.45C179.941 26.5688 181.03 25.2816 181.822 23.5885C182.624 21.8854 183.025 19.7962 183.025 17.3209Z" fill="white"/>
<path d="M195.383 32.5295V2.11227H206.522C208.681 2.11227 210.468 2.46872 211.884 3.18163C213.3 3.88463 214.359 4.84011 215.062 6.04809C215.765 7.24616 216.117 8.59771 216.117 10.1027C216.117 11.3701 215.884 12.4395 215.419 13.3108C214.953 14.1722 214.329 14.8653 213.547 15.3901C212.775 15.905 211.923 16.2812 210.993 16.5188V16.8159C212.003 16.8654 212.988 17.1921 213.948 17.7961C214.919 18.3902 215.721 19.2368 216.354 20.3358C216.988 21.4349 217.305 22.7716 217.305 24.3459C217.305 25.9004 216.938 27.2965 216.206 28.5342C215.483 29.762 214.364 30.7373 212.849 31.4601C211.334 32.173 209.398 32.5295 207.042 32.5295H195.383ZM199.972 28.5936H206.596C208.794 28.5936 210.369 28.1679 211.319 27.3164C212.27 26.4648 212.745 25.4004 212.745 24.1231C212.745 23.1627 212.503 22.2815 212.017 21.4795C211.532 20.6774 210.839 20.0388 209.938 19.5635C209.047 19.0883 207.988 18.8506 206.76 18.8506H199.972V28.5936ZM199.972 15.2713H206.121C207.151 15.2713 208.077 15.0732 208.898 14.6772C209.73 14.2811 210.389 13.7266 210.874 13.0137C211.369 12.2909 211.616 11.4394 211.616 10.4592C211.616 9.20169 211.176 8.14719 210.295 7.29567C209.413 6.44415 208.062 6.01838 206.24 6.01838H199.972V15.2713Z" fill="white"/>
<path d="M23.4664 2.1123V32.5295H18.8919V6.03327H4.57446V32.5295H0V2.1123H23.4664Z" fill="white"/>
<g opacity="0.8">
<path d="M132.474 51.0212L136.384 44.5696H138.244V53.4413H136.551V46.9839L132.658 53.4413H130.781V44.5696H132.474V51.0212Z" fill="white"/>
<path d="M146.496 53.4413V44.5696H148.223V48.2893H149.055L151.983 44.5696H154.121L150.684 48.8842L154.161 53.4413H152.018L149.344 49.8949H148.223V53.4413H146.496Z" fill="white"/>
<path d="M159.687 53.6203C158.856 53.6203 158.13 53.4297 157.51 53.0485C156.89 52.6673 156.409 52.134 156.066 51.4486C155.723 50.7632 155.552 49.9623 155.552 49.0459C155.552 48.1256 155.723 47.3208 156.066 46.6316C156.409 45.9423 156.89 45.4071 157.51 45.0259C158.13 44.6447 158.856 44.4541 159.687 44.4541C160.519 44.4541 161.245 44.6447 161.865 45.0259C162.485 45.4071 162.966 45.9423 163.309 46.6316C163.651 47.3208 163.823 48.1256 163.823 49.0459C163.823 49.9623 163.651 50.7632 163.309 51.4486C162.966 52.134 162.485 52.6673 161.865 53.0485C161.245 53.4297 160.519 53.6203 159.687 53.6203ZM159.693 52.1706C160.232 52.1706 160.679 52.0281 161.033 51.7432C161.387 51.4583 161.649 51.079 161.819 50.6054C161.992 50.1317 162.078 49.61 162.078 49.0401C162.078 48.4741 161.992 47.9543 161.819 47.4806C161.649 47.0032 161.387 46.62 161.033 46.3312C160.679 46.0425 160.232 45.8981 159.693 45.8981C159.15 45.8981 158.7 46.0425 158.341 46.3312C157.987 46.62 157.723 47.0032 157.55 47.4806C157.381 47.9543 157.296 48.4741 157.296 49.0401C157.296 49.61 157.381 50.1317 157.55 50.6054C157.723 51.079 157.987 51.4583 158.341 51.7432C158.7 52.0281 159.15 52.1706 159.693 52.1706Z" fill="white"/>
<path d="M171.542 51.3042L174.407 44.5696H175.897L172.184 53.4413H170.901L167.263 44.5696H168.735L171.542 51.3042ZM168.256 44.5696V53.4413H166.564V44.5696H168.256ZM174.875 53.4413V44.5696H176.556V53.4413H174.875Z" fill="white"/>
<path d="M182.253 53.6377C181.69 53.6377 181.182 53.5337 180.728 53.3258C180.273 53.114 179.913 52.8079 179.648 52.4074C179.386 52.007 179.255 51.516 179.255 50.9346C179.255 50.434 179.351 50.022 179.544 49.6986C179.736 49.3751 179.996 49.119 180.323 48.9304C180.651 48.7417 181.017 48.5992 181.421 48.503C181.825 48.4067 182.237 48.3335 182.657 48.2835C183.188 48.2219 183.62 48.1718 183.951 48.1333C184.282 48.091 184.522 48.0236 184.673 47.9312C184.823 47.8387 184.898 47.6886 184.898 47.4806V47.4402C184.898 46.9358 184.755 46.545 184.47 46.2677C184.189 45.9905 183.77 45.8519 183.211 45.8519C182.63 45.8519 182.172 45.9808 181.837 46.2388C181.506 46.493 181.276 46.776 181.149 47.0879L179.526 46.7182C179.719 46.1791 180 45.744 180.37 45.4129C180.743 45.0779 181.172 44.8353 181.658 44.6851C182.143 44.5311 182.653 44.4541 183.188 44.4541C183.543 44.4541 183.918 44.4965 184.315 44.5812C184.715 44.662 185.089 44.8122 185.435 45.0317C185.785 45.2512 186.072 45.565 186.296 45.9731C186.519 46.3775 186.631 46.9031 186.631 47.5499V53.4413H184.944V52.2284H184.875C184.763 52.4517 184.596 52.6712 184.372 52.8868C184.149 53.1024 183.862 53.2815 183.512 53.424C183.161 53.5664 182.742 53.6377 182.253 53.6377ZM182.628 52.2515C183.105 52.2515 183.514 52.1571 183.852 51.9685C184.195 51.7798 184.455 51.5333 184.632 51.2292C184.813 50.9211 184.904 50.5919 184.904 50.2415V49.0979C184.842 49.1595 184.723 49.2172 184.546 49.2711C184.372 49.3212 184.174 49.3655 183.951 49.404C183.727 49.4386 183.51 49.4714 183.298 49.5022C183.086 49.5291 182.909 49.5522 182.767 49.5715C182.432 49.6138 182.126 49.6851 181.848 49.7852C181.575 49.8853 181.355 50.0297 181.19 50.2184C181.028 50.4032 180.947 50.6496 180.947 50.9577C180.947 51.3851 181.105 51.7085 181.421 51.928C181.737 52.1437 182.139 52.2515 182.628 52.2515Z" fill="white"/>
<path d="M195.757 48.2604V49.7563H190.951V48.2604H195.757ZM191.436 44.5696V53.4413H189.744V44.5696H191.436ZM196.964 44.5696V53.4413H195.277V44.5696H196.964Z" fill="white"/>
<path d="M199.221 56V51.9454H199.943C200.128 51.7759 200.284 51.5738 200.411 51.3389C200.542 51.104 200.652 50.8248 200.74 50.5014C200.833 50.178 200.91 49.8006 200.971 49.3693C201.033 48.9342 201.087 48.4375 201.133 47.8792L201.41 44.5696H207.44V51.9454H208.803V56H207.117V53.4413H200.931V56H199.221ZM201.791 51.9454H205.754V46.0482H202.958L202.773 47.8792C202.685 48.811 202.573 49.6196 202.438 50.305C202.303 50.9866 202.088 51.5333 201.791 51.9454Z" fill="white"/>
<path d="M213.886 53.6377C213.324 53.6377 212.816 53.5337 212.361 53.3258C211.907 53.114 211.547 52.8079 211.281 52.4074C211.019 52.007 210.889 51.516 210.889 50.9346C210.889 50.434 210.985 50.022 211.177 49.6986C211.37 49.3751 211.63 49.119 211.957 48.9304C212.284 48.7417 212.65 48.5992 213.055 48.503C213.459 48.4067 213.871 48.3335 214.291 48.2835C214.822 48.2219 215.253 48.1718 215.584 48.1333C215.915 48.091 216.156 48.0236 216.306 47.9312C216.456 47.8387 216.532 47.6886 216.532 47.4806V47.4402C216.532 46.9358 216.389 46.545 216.104 46.2677C215.823 45.9905 215.403 45.8519 214.845 45.8519C214.264 45.8519 213.805 45.9808 213.47 46.2388C213.139 46.493 212.91 46.776 212.783 47.0879L211.16 46.7182C211.353 46.1791 211.634 45.744 212.003 45.4129C212.377 45.0779 212.806 44.8353 213.291 44.6851C213.776 44.5311 214.287 44.4541 214.822 44.4541C215.176 44.4541 215.552 44.4965 215.948 44.5812C216.349 44.662 216.722 44.8122 217.069 45.0317C217.419 45.2512 217.706 45.565 217.929 45.9731C218.153 46.3775 218.264 46.9031 218.264 47.5499V53.4413H216.578V52.2284H216.508C216.397 52.4517 216.229 52.6712 216.006 52.8868C215.783 53.1024 215.496 53.2815 215.145 53.424C214.795 53.5664 214.375 53.6377 213.886 53.6377ZM214.262 52.2515C214.739 52.2515 215.147 52.1571 215.486 51.9685C215.829 51.7798 216.089 51.5333 216.266 51.2292C216.447 50.9211 216.537 50.5919 216.537 50.2415V49.0979C216.476 49.1595 216.356 49.2172 216.179 49.2711C216.006 49.3212 215.808 49.3655 215.584 49.404C215.361 49.4386 215.143 49.4714 214.932 49.5022C214.72 49.5291 214.543 49.5522 214.4 49.5715C214.065 49.6138 213.759 49.6851 213.482 49.7852C213.209 49.8853 212.989 50.0297 212.823 50.2184C212.662 50.4032 212.581 50.6496 212.581 50.9577C212.581 51.3851 212.739 51.7085 213.055 51.928C213.37 52.1437 213.773 52.2515 214.262 52.2515Z" fill="white"/>
</g>
<g opacity="0.8">
<path d="M259.291 2.32355H260.723V6.27422C260.723 6.8595 260.825 7.31964 261.029 7.65464C261.233 7.98579 261.522 8.22067 261.895 8.35929C262.269 8.49406 262.71 8.56145 263.218 8.56145C263.538 8.56145 263.848 8.54989 264.148 8.52679C264.448 8.49984 264.741 8.46326 265.026 8.41705C265.315 8.37084 265.596 8.31501 265.869 8.24955C266.146 8.18409 266.418 8.11093 266.684 8.03007V9.32386C266.426 9.40472 266.17 9.47788 265.915 9.54334C265.665 9.6088 265.403 9.66463 265.13 9.71084C264.86 9.75704 264.57 9.79362 264.258 9.82058C263.946 9.84368 263.599 9.85523 263.218 9.85523C262.402 9.85523 261.699 9.73779 261.11 9.50291C260.525 9.26802 260.074 8.88874 259.758 8.36507C259.446 7.84139 259.291 7.14444 259.291 6.27422V2.32355ZM266.499 2.32355H267.931V14.1525H266.499V2.32355Z" fill="white"/>
<path d="M274.041 14.3604C273.479 14.3604 272.968 14.2545 272.51 14.0427C272.052 13.8271 271.688 13.5171 271.419 13.1128C271.149 12.7046 271.014 12.2118 271.014 11.6342C271.014 11.1259 271.114 10.7139 271.315 10.3982C271.515 10.0786 271.783 9.82828 272.118 9.6473C272.453 9.46633 272.822 9.33156 273.226 9.24299C273.635 9.15058 274.045 9.07742 274.457 9.02351C274.996 8.9542 275.433 8.90222 275.768 8.86757C276.107 8.82906 276.353 8.76553 276.507 8.67696C276.665 8.5884 276.744 8.43438 276.744 8.2149V8.16869C276.744 7.59881 276.588 7.15599 276.276 6.84025C275.968 6.5245 275.5 6.36663 274.873 6.36663C274.222 6.36663 273.712 6.5091 273.342 6.79404C272.972 7.07898 272.712 7.38318 272.562 7.70662L271.268 7.24456C271.5 6.70548 271.808 6.28577 272.193 5.98543C272.582 5.68123 273.005 5.46945 273.463 5.35008C273.925 5.22687 274.38 5.16526 274.826 5.16526C275.111 5.16526 275.439 5.19991 275.808 5.26922C276.182 5.33468 276.542 5.47138 276.888 5.67931C277.239 5.88724 277.529 6.20106 277.761 6.62077C277.992 7.04048 278.107 7.60266 278.107 8.30731V14.1525H276.744V12.9511H276.675C276.582 13.1436 276.428 13.3496 276.213 13.5691C275.997 13.7886 275.71 13.9753 275.352 14.1293C274.994 14.2834 274.557 14.3604 274.041 14.3604ZM274.249 13.1359C274.788 13.1359 275.242 13.03 275.612 12.8182C275.985 12.6065 276.266 12.3331 276.455 11.9981C276.648 11.6631 276.744 11.3107 276.744 10.9411V9.69351C276.686 9.76282 276.559 9.82635 276.363 9.88411C276.17 9.93802 275.947 9.98615 275.693 10.0285C275.442 10.067 275.198 10.1017 274.959 10.1325C274.724 10.1594 274.534 10.1825 274.387 10.2018C274.033 10.248 273.702 10.3231 273.394 10.427C273.09 10.5272 272.843 10.6793 272.655 10.8833C272.47 11.0836 272.377 11.3569 272.377 11.7035C272.377 12.1771 272.553 12.5352 272.903 12.7778C273.257 13.0165 273.706 13.1359 274.249 13.1359Z" fill="white"/>
<path d="M285.012 14.3373C284.181 14.3373 283.464 14.1409 282.864 13.7481C282.263 13.3554 281.801 12.8144 281.478 12.1251C281.154 11.4359 280.992 10.6484 280.992 9.76282C280.992 8.86179 281.158 8.06665 281.489 7.3774C281.824 6.6843 282.29 6.1433 282.887 5.75439C283.488 5.36164 284.188 5.16526 284.989 5.16526C285.613 5.16526 286.175 5.28077 286.676 5.51181C287.176 5.74284 287.586 6.06629 287.906 6.48215C288.226 6.89801 288.424 7.38318 288.501 7.93766H287.138C287.034 7.53335 286.803 7.17525 286.445 6.86335C286.091 6.54761 285.613 6.38973 285.012 6.38973C284.481 6.38973 284.015 6.52835 283.615 6.80559C283.218 7.07898 282.908 7.46596 282.685 7.96654C282.465 8.46326 282.355 9.04662 282.355 9.71661C282.355 10.402 282.463 10.9988 282.679 11.5071C282.898 12.0154 283.206 12.4101 283.603 12.6912C284.004 12.9723 284.473 13.1128 285.012 13.1128C285.367 13.1128 285.688 13.0512 285.977 12.928C286.266 12.8048 286.51 12.6276 286.71 12.3966C286.911 12.1656 287.053 11.8883 287.138 11.5649H288.501C288.424 12.0886 288.233 12.5602 287.929 12.98C287.629 13.3958 287.23 13.727 286.734 13.9734C286.241 14.216 285.667 14.3373 285.012 14.3373Z" fill="white"/>
<path d="M290.608 6.55146V5.28077H297.816V6.55146H294.905V14.1525H293.542V6.55146H290.608Z" fill="white"/>
<path d="M306.555 9.09282V10.3635H301.657V9.09282H306.555ZM301.981 5.28077V14.1525H300.618V5.28077H301.981ZM307.595 5.28077V14.1525H306.232V5.28077H307.595Z" fill="white"/>
<path d="M314.502 14.3373C313.701 14.3373 312.998 14.1467 312.394 13.7655C311.793 13.3843 311.323 12.851 310.984 12.1656C310.649 11.4802 310.482 10.6793 310.482 9.76282C310.482 8.83869 310.649 8.03199 310.984 7.34275C311.323 6.6535 311.793 6.11827 312.394 5.73706C312.998 5.35586 313.701 5.16526 314.502 5.16526C315.303 5.16526 316.003 5.35586 316.604 5.73706C317.209 6.11827 317.678 6.6535 318.013 7.34275C318.352 8.03199 318.522 8.83869 318.522 9.76282C318.522 10.6793 318.352 11.4802 318.013 12.1656C317.678 12.851 317.209 13.3843 316.604 13.7655C316.003 14.1467 315.303 14.3373 314.502 14.3373ZM314.502 13.1128C315.11 13.1128 315.611 12.9569 316.003 12.645C316.396 12.3331 316.687 11.923 316.876 11.4147C317.064 10.9064 317.159 10.3558 317.159 9.76282C317.159 9.16983 317.064 8.61728 316.876 8.10516C316.687 7.59303 316.396 7.1791 316.003 6.86335C315.611 6.54761 315.11 6.38973 314.502 6.38973C313.893 6.38973 313.393 6.54761 313 6.86335C312.607 7.1791 312.317 7.59303 312.128 8.10516C311.939 8.61728 311.845 9.16983 311.845 9.76282C311.845 10.3558 311.939 10.9064 312.128 11.4147C312.317 11.923 312.607 12.3331 313 12.645C313.393 12.9569 313.893 13.1128 314.502 13.1128Z" fill="white"/>
<path d="M325.135 14.3373C324.281 14.3373 323.543 14.1486 322.923 13.7712C322.307 13.39 321.832 12.8587 321.497 12.1771C321.165 11.4917 321 10.6947 321 9.78592C321 8.87719 321.165 8.07628 321.497 7.38318C321.832 6.68623 322.297 6.1433 322.894 5.75439C323.495 5.36164 324.196 5.16526 324.997 5.16526C325.459 5.16526 325.915 5.24227 326.366 5.39629C326.816 5.55031 327.226 5.8006 327.596 6.14715C327.965 6.48985 328.26 6.94421 328.48 7.51024C328.699 8.07628 328.809 8.77323 328.809 9.6011V10.1787H321.97V9.00041H327.423C327.423 8.49984 327.322 8.05317 327.122 7.66042C326.926 7.26766 326.645 6.95769 326.279 6.73051C325.917 6.50332 325.49 6.38973 324.997 6.38973C324.454 6.38973 323.984 6.5245 323.587 6.79404C323.195 7.05973 322.892 7.40628 322.681 7.83369C322.469 8.2611 322.363 8.71932 322.363 9.20834V9.99385C322.363 10.6638 322.478 11.2318 322.709 11.6977C322.944 12.1598 323.27 12.5121 323.686 12.7547C324.101 12.9934 324.585 13.1128 325.135 13.1128C325.493 13.1128 325.817 13.0627 326.106 12.9626C326.398 12.8587 326.651 12.7046 326.862 12.5006C327.074 12.2926 327.238 12.0346 327.353 11.7266L328.67 12.0963C328.532 12.5429 328.299 12.9357 327.971 13.2745C327.644 13.6095 327.24 13.8714 326.758 14.06C326.277 14.2449 325.736 14.3373 325.135 14.3373Z" fill="white"/>
<path d="M258.043 35.2821V31.47H258.782C258.963 31.2814 259.119 31.0773 259.25 30.8578C259.381 30.6383 259.495 30.3784 259.591 30.0781C259.691 29.7739 259.776 29.4042 259.845 28.9691C259.914 28.5301 259.976 28.0007 260.03 27.3808L260.33 23.8691H265.967V31.47H267.331V35.2821H265.967V32.7407H259.406V35.2821H258.043ZM260.33 31.47H264.604V25.1397H261.601L261.37 27.3808C261.274 28.3087 261.154 29.1193 261.012 29.8124C260.869 30.5055 260.642 31.058 260.33 31.47Z" fill="white"/>
<path d="M273.673 32.9256C272.818 32.9256 272.08 32.7369 271.461 32.3595C270.844 31.9783 270.369 31.4469 270.034 30.7654C269.703 30.08 269.537 29.2829 269.537 28.3742C269.537 27.4655 269.703 26.6646 270.034 25.9715C270.369 25.2745 270.835 24.7316 271.432 24.3427C272.032 23.9499 272.733 23.7535 273.534 23.7535C273.996 23.7535 274.452 23.8305 274.903 23.9846C275.353 24.1386 275.764 24.3889 276.133 24.7354C276.503 25.0781 276.797 25.5325 277.017 26.0985C277.236 26.6646 277.346 27.3615 277.346 28.1894V28.767H270.508V27.5887H275.96C275.96 27.0881 275.86 26.6415 275.66 26.2487C275.463 25.8559 275.182 25.546 274.816 25.3188C274.454 25.0916 274.027 24.978 273.534 24.978C272.991 24.978 272.521 25.1128 272.125 25.3823C271.732 25.648 271.43 25.9946 271.218 26.422C271.006 26.8494 270.9 27.3076 270.9 27.7966V28.5821C270.9 29.2521 271.016 29.8201 271.247 30.286C271.482 30.7481 271.807 31.1004 272.223 31.343C272.639 31.5817 273.122 31.7011 273.673 31.7011C274.031 31.7011 274.354 31.651 274.643 31.5509C274.936 31.4469 275.188 31.2929 275.4 31.0888C275.611 30.8809 275.775 30.6229 275.891 30.3149L277.207 30.6845C277.069 31.1312 276.836 31.524 276.509 31.8628C276.181 32.1978 275.777 32.4596 275.296 32.6483C274.814 32.8331 274.273 32.9256 273.673 32.9256Z" fill="white"/>
<path d="M279.407 25.1397V23.8691H286.615V25.1397H283.704V32.7407H282.341V25.1397H279.407Z" fill="white"/>
<path d="M292.676 32.9256C291.821 32.9256 291.084 32.7369 290.464 32.3595C289.847 31.9783 289.372 31.4469 289.037 30.7654C288.706 30.08 288.54 29.2829 288.54 28.3742C288.54 27.4655 288.706 26.6646 289.037 25.9715C289.372 25.2745 289.838 24.7316 290.435 24.3427C291.035 23.9499 291.736 23.7535 292.537 23.7535C292.999 23.7535 293.455 23.8305 293.906 23.9846C294.356 24.1386 294.767 24.3889 295.136 24.7354C295.506 25.0781 295.8 25.5325 296.02 26.0985C296.239 26.6646 296.349 27.3615 296.349 28.1894V28.767H289.511V27.5887H294.963C294.963 27.0881 294.863 26.6415 294.663 26.2487C294.466 25.8559 294.185 25.546 293.819 25.3188C293.457 25.0916 293.03 24.978 292.537 24.978C291.994 24.978 291.524 25.1128 291.128 25.3823C290.735 25.648 290.433 25.9946 290.221 26.422C290.009 26.8494 289.903 27.3076 289.903 27.7966V28.5821C289.903 29.2521 290.019 29.8201 290.25 30.286C290.485 30.7481 290.81 31.1004 291.226 31.343C291.642 31.5817 292.125 31.7011 292.676 31.7011C293.034 31.7011 293.357 31.651 293.646 31.5509C293.939 31.4469 294.191 31.2929 294.403 31.0888C294.614 30.8809 294.778 30.6229 294.894 30.3149L296.211 30.6845C296.072 31.1312 295.839 31.524 295.512 31.8628C295.184 32.1978 294.78 32.4596 294.299 32.6483C293.817 32.8331 293.276 32.9256 292.676 32.9256Z" fill="white"/>
<path d="M299.236 32.7407V23.8691H300.599V27.7273H301.5L304.688 23.8691H306.444L302.863 28.1432L306.49 32.7407H304.735L301.823 28.998H300.599V32.7407H299.236Z" fill="white"/>
<path d="M308.277 25.1397V23.8691H315.485V25.1397H312.574V32.7407H311.211V25.1397H308.277Z" fill="white"/>
<path d="M319.65 30.7307L323.924 23.8691H325.495V32.7407H324.132V25.879L319.881 32.7407H318.287V23.8691H319.65V30.7307Z" fill="white"/>
<path d="M328.805 32.7407V23.8691H332.432C333.387 23.8691 334.145 24.0847 334.708 24.5159C335.27 24.9472 335.551 25.5171 335.551 26.2256C335.551 26.7647 335.391 27.1825 335.071 27.4789C334.752 27.7716 334.342 27.9699 333.841 28.0739C334.169 28.1201 334.486 28.2356 334.794 28.4204C335.106 28.6052 335.364 28.8594 335.568 29.1828C335.772 29.5024 335.874 29.8952 335.874 30.3611C335.874 30.8155 335.759 31.2217 335.528 31.5798C335.297 31.9379 334.966 32.2209 334.534 32.4288C334.103 32.6368 333.587 32.7407 332.986 32.7407H328.805ZM330.098 31.4931H332.986C333.456 31.4931 333.824 31.3815 334.09 31.1582C334.355 30.9348 334.488 30.6306 334.488 30.2456C334.488 29.7874 334.355 29.4273 334.09 29.1655C333.824 28.8998 333.456 28.767 332.986 28.767H330.098V31.4931ZM330.098 27.5887H332.432C332.798 27.5887 333.112 27.5386 333.373 27.4385C333.635 27.3345 333.835 27.1882 333.974 26.9996C334.117 26.807 334.188 26.5798 334.188 26.318C334.188 25.9445 334.032 25.6519 333.72 25.4401C333.408 25.2244 332.979 25.1166 332.432 25.1166H330.098V27.5887Z" fill="white"/>
<path d="M344.689 27.6811V28.9518H339.791V27.6811H344.689ZM340.114 23.8691V32.7407H338.751V23.8691H340.114ZM345.728 23.8691V32.7407H344.365V23.8691H345.728Z" fill="white"/>
<path d="M352.635 32.9256C351.834 32.9256 351.131 32.735 350.527 32.3538C349.926 31.9725 349.456 31.4392 349.117 30.7538C348.782 30.0684 348.615 29.2675 348.615 28.3511C348.615 27.427 348.782 26.6203 349.117 25.931C349.456 25.2418 349.926 24.7065 350.527 24.3253C351.131 23.9441 351.834 23.7535 352.635 23.7535C353.436 23.7535 354.137 23.9441 354.737 24.3253C355.342 24.7065 355.812 25.2418 356.147 25.931C356.485 26.6203 356.655 27.427 356.655 28.3511C356.655 29.2675 356.485 30.0684 356.147 30.7538C355.812 31.4392 355.342 31.9725 354.737 32.3538C354.137 32.735 353.436 32.9256 352.635 32.9256ZM352.635 31.7011C353.243 31.7011 353.744 31.5451 354.137 31.2332C354.529 30.9213 354.82 30.5113 355.009 30.003C355.197 29.4947 355.292 28.9441 355.292 28.3511C355.292 27.7581 355.197 27.2056 355.009 26.6934C354.82 26.1813 354.529 25.7674 354.137 25.4516C353.744 25.1359 353.243 24.978 352.635 24.978C352.027 24.978 351.526 25.1359 351.133 25.4516C350.74 25.7674 350.45 26.1813 350.261 26.6934C350.072 27.2056 349.978 27.7581 349.978 28.3511C349.978 28.9441 350.072 29.4947 350.261 30.003C350.45 30.5113 350.74 30.9213 351.133 31.2332C351.526 31.5451 352.027 31.7011 352.635 31.7011Z" fill="white"/>
<path d="M363.269 32.9256C362.414 32.9256 361.676 32.7369 361.056 32.3595C360.44 31.9783 359.965 31.4469 359.63 30.7654C359.299 30.08 359.133 29.2829 359.133 28.3742C359.133 27.4655 359.299 26.6646 359.63 25.9715C359.965 25.2745 360.431 24.7316 361.027 24.3427C361.628 23.9499 362.329 23.7535 363.13 23.7535C363.592 23.7535 364.048 23.8305 364.499 23.9846C364.949 24.1386 365.359 24.3889 365.729 24.7354C366.099 25.0781 366.393 25.5325 366.613 26.0985C366.832 26.6646 366.942 27.3615 366.942 28.1894V28.767H360.103V27.5887H365.556C365.556 27.0881 365.456 26.6415 365.255 26.2487C365.059 25.8559 364.778 25.546 364.412 25.3188C364.05 25.0916 363.623 24.978 363.13 24.978C362.587 24.978 362.117 25.1128 361.721 25.3823C361.328 25.648 361.026 25.9946 360.814 26.422C360.602 26.8494 360.496 27.3076 360.496 27.7966V28.5821C360.496 29.2521 360.612 29.8201 360.843 30.286C361.078 30.7481 361.403 31.1004 361.819 31.343C362.235 31.5817 362.718 31.7011 363.269 31.7011C363.627 31.7011 363.95 31.651 364.239 31.5509C364.532 31.4469 364.784 31.2929 364.995 31.0888C365.207 30.8809 365.371 30.6229 365.486 30.3149L366.803 30.6845C366.665 31.1312 366.432 31.524 366.104 31.8628C365.777 32.1978 365.373 32.4596 364.892 32.6483C364.41 32.8331 363.869 32.9256 363.269 32.9256Z" fill="white"/>
<path d="M261.601 51.5369C261.039 51.5369 260.529 51.431 260.07 51.2193C259.612 51.0036 259.248 50.6937 258.979 50.2894C258.709 49.8812 258.574 49.3883 258.574 48.8107C258.574 48.3025 258.674 47.8905 258.875 47.5747C259.075 47.2551 259.343 47.0048 259.678 46.8239C260.013 46.6429 260.382 46.5081 260.786 46.4196C261.195 46.3271 261.605 46.254 262.017 46.2001C262.556 46.1308 262.993 46.0788 263.328 46.0441C263.667 46.0056 263.913 45.9421 264.067 45.8535C264.225 45.765 264.304 45.6109 264.304 45.3915V45.3452C264.304 44.7754 264.148 44.3325 263.836 44.0168C263.528 43.7011 263.06 43.5432 262.433 43.5432C261.782 43.5432 261.272 43.6857 260.902 43.9706C260.532 44.2555 260.272 44.5597 260.122 44.8832L258.828 44.4211C259.06 43.882 259.368 43.4623 259.753 43.162C260.142 42.8578 260.565 42.646 261.023 42.5266C261.485 42.4034 261.94 42.3418 262.386 42.3418C262.671 42.3418 262.999 42.3765 263.368 42.4458C263.742 42.5112 264.102 42.6479 264.448 42.8559C264.799 43.0638 265.089 43.3776 265.321 43.7973C265.552 44.217 265.667 44.7792 265.667 45.4839V51.329H264.304V50.1276H264.235C264.142 50.3202 263.988 50.5262 263.773 50.7456C263.557 50.9651 263.27 51.1519 262.912 51.3059C262.554 51.4599 262.117 51.5369 261.601 51.5369ZM261.809 50.3125C262.348 50.3125 262.802 50.2066 263.172 49.9948C263.545 49.783 263.827 49.5096 264.015 49.1746C264.208 48.8396 264.304 48.4873 264.304 48.1176V46.8701C264.246 46.9394 264.119 47.0029 263.923 47.0607C263.73 47.1146 263.507 47.1627 263.253 47.2051C263.002 47.2436 262.758 47.2782 262.519 47.309C262.284 47.336 262.094 47.3591 261.947 47.3783C261.593 47.4245 261.262 47.4996 260.954 47.6036C260.65 47.7037 260.403 47.8558 260.215 48.0599C260.03 48.2601 259.937 48.5335 259.937 48.8801C259.937 49.3537 260.113 49.7118 260.463 49.9544C260.817 50.1931 261.266 50.3125 261.809 50.3125Z" fill="white"/>
<path d="M274.444 42.4573V43.728H270.331V51.329H268.968V42.4573H274.444Z" fill="white"/>
<path d="M280.506 51.5138C279.651 51.5138 278.914 51.3252 278.294 50.9478C277.678 50.5666 277.202 50.0352 276.867 49.3537C276.536 48.6683 276.37 47.8712 276.37 46.9625C276.37 46.0537 276.536 45.2528 276.867 44.5597C277.202 43.8628 277.668 43.3199 278.265 42.9309C278.865 42.5382 279.566 42.3418 280.367 42.3418C280.829 42.3418 281.285 42.4188 281.736 42.5728C282.187 42.7269 282.597 42.9772 282.966 43.3237C283.336 43.6664 283.63 44.1208 283.85 44.6868C284.069 45.2528 284.179 45.9498 284.179 46.7777V47.3552H277.341V46.177H282.793C282.793 45.6764 282.693 45.2297 282.493 44.837C282.296 44.4442 282.015 44.1342 281.649 43.9071C281.287 43.6799 280.86 43.5663 280.367 43.5663C279.824 43.5663 279.354 43.7011 278.958 43.9706C278.565 44.2363 278.263 44.5828 278.051 45.0102C277.839 45.4377 277.733 45.8959 277.733 46.3849V47.1704C277.733 47.8404 277.849 48.4084 278.08 48.8743C278.315 49.3363 278.64 49.6887 279.056 49.9313C279.472 50.17 279.955 50.2894 280.506 50.2894C280.864 50.2894 281.187 50.2393 281.476 50.1392C281.769 50.0352 282.021 49.8812 282.233 49.6771C282.445 49.4692 282.608 49.2112 282.724 48.9032L284.041 49.2728C283.902 49.7195 283.669 50.1122 283.342 50.4511C283.014 50.7861 282.61 51.0479 282.129 51.2366C281.647 51.4214 281.106 51.5138 280.506 51.5138Z" fill="white"/>
<path d="M293.004 46.2694V47.5401H288.106V46.2694H293.004ZM288.429 42.4573V51.329H287.066V42.4573H288.429ZM294.043 42.4573V51.329H292.68V42.4573H294.043Z" fill="white"/>
<path d="M296.139 43.728V42.4573H303.347V43.728H300.436V51.329H299.073V43.728H296.139Z" fill="white"/>
<path d="M309.292 51.5138C308.46 51.5138 307.744 51.3175 307.143 50.9247C306.543 50.5319 306.081 49.9909 305.757 49.3017C305.434 48.6124 305.272 47.825 305.272 46.9394C305.272 46.0383 305.438 45.2432 305.769 44.554C306.104 43.8609 306.57 43.3199 307.166 42.9309C307.767 42.5382 308.468 42.3418 309.269 42.3418C309.893 42.3418 310.455 42.4573 310.955 42.6884C311.456 42.9194 311.866 43.2428 312.186 43.6587C312.505 44.0746 312.704 44.5597 312.781 45.1142H311.417C311.313 44.7099 311.082 44.3518 310.724 44.0399C310.37 43.7242 309.893 43.5663 309.292 43.5663C308.761 43.5663 308.295 43.7049 307.894 43.9822C307.498 44.2555 307.188 44.6425 306.964 45.1431C306.745 45.6398 306.635 46.2232 306.635 46.8932C306.635 47.5786 306.743 48.1754 306.958 48.6837C307.178 49.192 307.486 49.5866 307.883 49.8677C308.283 50.1488 308.753 50.2894 309.292 50.2894C309.646 50.2894 309.968 50.2277 310.256 50.1045C310.545 49.9813 310.79 49.8042 310.99 49.5732C311.19 49.3421 311.333 49.0649 311.417 48.7414H312.781C312.704 49.2651 312.513 49.7368 312.209 50.1565C311.908 50.5724 311.51 50.9035 311.013 51.15C310.52 51.3925 309.947 51.5138 309.292 51.5138Z" fill="white"/>
<path d="M314.888 43.728V42.4573H322.096V43.728H319.185V51.329H317.822V43.728H314.888Z" fill="white"/>
<path d="M324.897 51.329V42.4573H328.525C329.48 42.4573 330.238 42.673 330.8 43.1042C331.362 43.5355 331.644 44.1054 331.644 44.8139C331.644 45.3529 331.484 45.7707 331.164 46.0672C330.845 46.3599 330.434 46.5582 329.934 46.6621C330.261 46.7083 330.579 46.8239 330.887 47.0087C331.199 47.1935 331.457 47.4477 331.661 47.7711C331.865 48.0907 331.967 48.4834 331.967 48.9494C331.967 49.4037 331.851 49.81 331.62 50.1681C331.389 50.5262 331.058 50.8092 330.627 51.0171C330.196 51.225 329.68 51.329 329.079 51.329H324.897ZM326.191 50.0814H329.079C329.549 50.0814 329.917 49.9698 330.182 49.7464C330.448 49.5231 330.581 49.2189 330.581 48.8338C330.581 48.3756 330.448 48.0156 330.182 47.7538C329.917 47.4881 329.549 47.3552 329.079 47.3552H326.191V50.0814ZM326.191 46.177H328.525C328.89 46.177 329.204 46.1269 329.466 46.0268C329.728 45.9228 329.928 45.7765 330.067 45.5878C330.209 45.3953 330.28 45.1681 330.28 44.9063C330.28 44.5328 330.124 44.2401 329.813 44.0284C329.501 43.8127 329.071 43.7049 328.525 43.7049H326.191V46.177Z" fill="white"/>
<path d="M338.448 51.5138C337.647 51.5138 336.944 51.3232 336.34 50.942C335.739 50.5608 335.269 50.0275 334.93 49.3421C334.595 48.6567 334.428 47.8558 334.428 46.9394C334.428 46.0152 334.595 45.2085 334.93 44.5193C335.269 43.8301 335.739 43.2948 336.34 42.9136C336.944 42.5324 337.647 42.3418 338.448 42.3418C339.249 42.3418 339.949 42.5324 340.55 42.9136C341.155 43.2948 341.624 43.8301 341.959 44.5193C342.298 45.2085 342.468 46.0152 342.468 46.9394C342.468 47.8558 342.298 48.6567 341.959 49.3421C341.624 50.0275 341.155 50.5608 340.55 50.942C339.949 51.3232 339.249 51.5138 338.448 51.5138ZM338.448 50.2894C339.056 50.2894 339.557 50.1334 339.949 49.8215C340.342 49.5096 340.633 49.0995 340.822 48.5913C341.01 48.083 341.105 47.5324 341.105 46.9394C341.105 46.3464 341.01 45.7938 340.822 45.2817C340.633 44.7696 340.342 44.3557 339.949 44.0399C339.557 43.7242 339.056 43.5663 338.448 43.5663C337.839 43.5663 337.339 43.7242 336.946 44.0399C336.553 44.3557 336.263 44.7696 336.074 45.2817C335.885 45.7938 335.791 46.3464 335.791 46.9394C335.791 47.5324 335.885 48.083 336.074 48.5913C336.263 49.0995 336.553 49.5096 336.946 49.8215C337.339 50.1334 337.839 50.2894 338.448 50.2894Z" fill="white"/>
</g>
<rect opacity="0.7" x="237.996" y="2.53479" width="1.16177" height="51.1178" fill="#D9D9D9"/>
<g clip-path="url(#clip0_1_1360)">
<path d="M78.2171 44.4376C75.2628 41.6306 72.3086 38.8242 69.3544 36.0185C68.8196 35.5081 68.2145 35.3561 67.5277 35.5709C67.2503 35.6573 67.0907 35.585 66.9055 35.403C66.3906 34.8945 65.8691 34.3926 65.3315 33.9085C65.1016 33.7021 65.0237 33.5576 65.227 33.2593C65.3635 33.0729 65.4275 32.8443 65.4073 32.6151C65.3871 32.386 65.2839 32.1717 65.1168 32.0115C64.7834 31.7038 64.2476 31.6925 63.8002 31.9965C63.6675 32.0822 63.5495 32.1883 63.4506 32.3108C63.2426 32.5857 63.0783 32.6044 62.8228 32.337C62.3711 31.8556 61.8912 31.4007 61.3855 30.9748C61.3191 30.9221 61.2597 30.8613 61.2088 30.7938C64.0889 27.421 65.6656 23.1493 65.6592 18.7373C65.6592 8.38917 57.1651 0 46.6865 0C36.208 0 27.7148 8.38917 27.7148 18.7373C27.7148 29.0853 36.209 37.4754 46.6865 37.4754C51.136 37.4817 55.4449 35.9368 58.854 33.1129C58.9244 33.1561 58.9884 33.2089 59.044 33.2696C59.424 33.6664 59.8372 34.0323 60.2371 34.4114C60.7937 34.9396 60.7937 34.9386 60.3321 35.525C59.9721 35.979 59.9417 36.542 60.2561 36.9078C60.5705 37.2737 61.1348 37.3357 61.6325 36.9867C61.8814 36.8122 62.0011 36.8741 62.1806 37.0504C62.7316 37.589 63.291 38.1206 63.8591 38.6453C63.9395 38.7048 63.9977 38.7888 64.0247 38.8844C64.0517 38.9799 64.0459 39.0816 64.0082 39.1735C63.7945 39.8847 63.9911 40.4804 64.5383 40.9974C67.4767 43.7744 70.4104 46.5576 73.3393 49.3471C74.1638 50.1286 75.1707 50.184 76.0095 49.4119C76.8306 48.6546 77.6095 47.8538 78.3425 47.0129C79.0549 46.1808 78.9722 45.1553 78.2171 44.4376ZM46.6865 33.8363C43.6636 33.8363 40.7086 32.9509 38.1951 31.2922C35.6817 29.6336 33.7227 27.276 32.5659 24.5177C31.409 21.7594 31.1064 18.7243 31.6961 15.7961C32.2858 12.8679 33.7415 10.1782 35.879 8.06705C38.0166 5.95594 40.7399 4.51826 43.7048 3.9358C46.6696 3.35335 49.7427 3.65229 52.5355 4.79481C55.3283 5.93733 57.7154 7.87213 59.3948 10.3545C61.0743 12.8369 61.9707 15.7554 61.9707 18.741C61.9707 22.7445 60.3604 26.584 57.4941 29.415C54.6277 32.2459 50.7402 33.8363 46.6865 33.8363Z" fill="white"/>
</g>
<defs>
<clipPath id="clip0_1_1360">
<rect width="51.1178" height="49.956" fill="white" transform="translate(27.7148)"/>
</clipPath>
</defs>
</svg>
