<svg width="24" height="24" viewBox="0 0 24 24" fill="none" xmlns="http://www.w3.org/2000/svg">
<path fill-rule="evenodd" clip-rule="evenodd" d="M10.5904 16.594L7.99739 19.017C7.99739 19.017 7.79439 19.174 7.57239 19.076L8.06939 14.576L8.08639 14.589L8.09639 14.497C8.09639 14.497 15.3684 7.8 15.6664 7.515C15.9644 7.23 15.8644 7.169 15.8644 7.169C15.8844 6.823 15.3284 7.169 15.3284 7.169L5.69239 13.439L1.67939 12.055C1.67939 12.055 1.06339 11.831 1.00339 11.342C0.943391 10.854 1.69939 10.589 1.69939 10.589L17.6524 4.177C17.6524 4.177 18.9644 3.587 18.9644 4.564L16.1234 19.24C16.1234 19.24 15.7254 20.258 14.6334 19.77L10.5904 16.594Z" fill="#002636"/>
</svg>
