<svg width="24" height="25" viewBox="0 0 24 25" fill="none" xmlns="http://www.w3.org/2000/svg">
<path d="M2.00401 22.1961L3.35601 17.214C2.46515 15.6825 1.99711 13.9407 2.00001 12.1677C2.00001 6.62901 6.47701 2.13928 12 2.13928C17.523 2.13928 22 6.62901 22 12.1677C22 17.7064 17.523 22.1961 12 22.1961C10.2328 22.199 8.49667 21.73 6.97001 20.8373L2.00401 22.1961ZM8.39101 7.46237C8.26188 7.47041 8.13569 7.50452 8.02001 7.56265C7.91153 7.62426 7.81251 7.70127 7.72601 7.7913C7.60601 7.90462 7.53801 8.0029 7.46501 8.09817C7.09542 8.58053 6.89662 9.17263 6.90001 9.78094C6.90201 10.2723 7.03001 10.7507 7.23001 11.198C7.63901 12.1025 8.31201 13.0602 9.20101 13.9477C9.41501 14.1614 9.62401 14.376 9.84901 14.5755C10.9524 15.5498 12.2673 16.2523 13.689 16.6273L14.258 16.7146C14.443 16.7246 14.628 16.7106 14.814 16.7016C15.1053 16.6865 15.3896 16.6074 15.647 16.4699C15.813 16.3816 15.891 16.3375 16.03 16.2493C16.03 16.2493 16.073 16.2212 16.155 16.159C16.29 16.0587 16.373 15.9875 16.485 15.8702C16.568 15.784 16.64 15.6827 16.695 15.5673C16.773 15.4039 16.851 15.092 16.883 14.8323C16.907 14.6337 16.9 14.5254 16.897 14.4582C16.893 14.3509 16.804 14.2396 16.707 14.1924L16.125 13.9307C16.125 13.9307 15.255 13.5506 14.724 13.3079C14.668 13.2835 14.608 13.2695 14.547 13.2668C14.4786 13.2598 14.4095 13.2675 14.3443 13.2895C14.2791 13.3114 14.2193 13.3471 14.169 13.3942V13.3922C14.164 13.3922 14.097 13.4493 13.374 14.3278C13.3325 14.3837 13.2754 14.426 13.2098 14.4492C13.1443 14.4724 13.0733 14.4756 13.006 14.4582C12.9409 14.4407 12.877 14.4186 12.815 14.392C12.691 14.3399 12.648 14.3198 12.563 14.2827L12.558 14.2807C11.9859 14.0302 11.4562 13.6919 10.988 13.2779C10.862 13.1675 10.745 13.0472 10.625 12.9309C10.2316 12.553 9.88873 12.1256 9.60501 11.6593L9.54601 11.564C9.50364 11.5 9.46937 11.4309 9.44401 11.3584C9.40601 11.211 9.50501 11.0927 9.50501 11.0927C9.50501 11.0927 9.74801 10.8259 9.86101 10.6815C9.9551 10.5615 10.0429 10.4366 10.124 10.3074C10.242 10.1169 10.279 9.92134 10.217 9.76991C9.93701 9.08396 9.64701 8.40103 9.34901 7.72311C9.29001 7.58873 9.11501 7.49245 8.95601 7.4734C8.90201 7.46738 8.84801 7.46137 8.79401 7.45735C8.65972 7.45066 8.52515 7.452 8.39101 7.46137V7.46237Z" fill="#002636"/>
</svg>
